<svg version="1.1" xmlns="http://www.w3.org/2000/svg" id="icon_warning" viewBox="0 0 256 256" xmlns:xlink="http://www.w3.org/1999/xlink" x="0px" y="0px" width="24" height="24" xml:space="preserve"><path fill="#000000" d="M127.853,15.077c3.176,0,5.881,1.029,8.145,3.088c2.265,2.087,4.176,4.381,5.705,6.998l110.975,191.882 c0.97,1.529,1.764,3.176,2.381,4.94c0.647,1.765,0.941,3.705,0.941,5.704c0,4.705-1.823,8.116-5.469,10.175 c-3.646,2.059-7.558,3.058-11.674,3.058H17.143c-4.117,0-7.998-0.999-11.674-3.058C1.823,235.806,0,232.395,0,227.689 c0-1.94,0.294-3.822,0.853-5.646c0.588-1.823,1.412-3.47,2.47-4.999l110.71-191.882c1.529-2.617,3.411-4.911,5.675-6.998 C121.972,16.106,124.677,15.077,127.853,15.077z M137.821,176.643c1.323,0,2.499-0.471,3.528-1.47c1-1.059,1.5-2.235,1.5-3.528 l2.176-91.288c0-1.353-0.529-2.529-1.529-3.529s-2.176-1.5-3.528-1.5h-23.936c-1.529,0-2.764,0.5-3.676,1.5 c-0.911,1-1.353,2.176-1.353,3.529l1.735,91.288c0,1.293,0.5,2.47,1.5,3.528c1,0.999,2.176,1.47,3.529,1.47H137.821L137.821,176.643 z M143.996,195.521c0-1.529-0.411-2.765-1.294-3.823c-0.853-1-2.058-1.47-3.587-1.47h-22.201c-1.353,0-2.528,0.47-3.528,1.411 c-1.029,1-1.529,2.294-1.529,3.882v21.23c0,1.528,0.5,2.764,1.529,3.646c1,0.941,2.176,1.353,3.528,1.353h22.201 c3.352,0,4.999-1.646,4.881-4.998V195.521z" class="shape"></path></svg>